<mxfile host="app.diagrams.net" modified="2023-08-22T12:20:40.281Z" agent="Mozilla/5.0 (Windows NT 10.0; Win64; x64) AppleWebKit/537.36 (KHTML, like Gecko) Chrome/116.0.0.0 Safari/537.36" etag="R9UH_g5_viUf5tl5qa-i" version="21.6.8" type="device">
  <diagram name="Page-1" id="IZDVPdS-FHPWyoIl8tBU">
    <mxGraphModel dx="2074" dy="1150" grid="1" gridSize="10" guides="1" tooltips="1" connect="1" arrows="1" fold="1" page="1" pageScale="1" pageWidth="827" pageHeight="1169" math="0" shadow="0">
      <root>
        <mxCell id="0" />
        <mxCell id="1" parent="0" />
        <mxCell id="dwXXUgJBTjUQGGqZUux0-8" style="edgeStyle=orthogonalEdgeStyle;rounded=0;orthogonalLoop=1;jettySize=auto;html=1;entryX=0;entryY=0.5;entryDx=0;entryDy=0;curved=1;" edge="1" parent="1" source="dwXXUgJBTjUQGGqZUux0-1" target="dwXXUgJBTjUQGGqZUux0-5">
          <mxGeometry relative="1" as="geometry" />
        </mxCell>
        <mxCell id="dwXXUgJBTjUQGGqZUux0-9" style="edgeStyle=orthogonalEdgeStyle;rounded=0;orthogonalLoop=1;jettySize=auto;html=1;entryX=0;entryY=0.5;entryDx=0;entryDy=0;curved=1;" edge="1" parent="1" source="dwXXUgJBTjUQGGqZUux0-1" target="dwXXUgJBTjUQGGqZUux0-7">
          <mxGeometry relative="1" as="geometry" />
        </mxCell>
        <mxCell id="dwXXUgJBTjUQGGqZUux0-1" value="&lt;font style=&quot;font-size: 18px;&quot;&gt;BlueSky/AT Protocol&lt;/font&gt;" style="ellipse;shape=cloud;whiteSpace=wrap;html=1;" vertex="1" parent="1">
          <mxGeometry x="40" y="150" width="250" height="140" as="geometry" />
        </mxCell>
        <mxCell id="dwXXUgJBTjUQGGqZUux0-18" style="edgeStyle=orthogonalEdgeStyle;rounded=0;orthogonalLoop=1;jettySize=auto;html=1;exitX=0.5;exitY=1;exitDx=0;exitDy=0;exitPerimeter=0;entryX=1;entryY=0.5;entryDx=0;entryDy=0;curved=1;" edge="1" parent="1" source="dwXXUgJBTjUQGGqZUux0-4" target="dwXXUgJBTjUQGGqZUux0-17">
          <mxGeometry relative="1" as="geometry" />
        </mxCell>
        <mxCell id="dwXXUgJBTjUQGGqZUux0-4" value="Piss post DB" style="shape=cylinder3;whiteSpace=wrap;html=1;boundedLbl=1;backgroundOutline=1;size=15;" vertex="1" parent="1">
          <mxGeometry x="560" y="360" width="100" height="140" as="geometry" />
        </mxCell>
        <mxCell id="dwXXUgJBTjUQGGqZUux0-12" style="edgeStyle=orthogonalEdgeStyle;rounded=0;orthogonalLoop=1;jettySize=auto;html=1;exitX=1;exitY=0.5;exitDx=0;exitDy=0;entryX=0.5;entryY=0;entryDx=0;entryDy=0;entryPerimeter=0;curved=1;" edge="1" parent="1" source="dwXXUgJBTjUQGGqZUux0-5" target="dwXXUgJBTjUQGGqZUux0-4">
          <mxGeometry relative="1" as="geometry" />
        </mxCell>
        <mxCell id="dwXXUgJBTjUQGGqZUux0-16" value="Add new post" style="edgeLabel;html=1;align=center;verticalAlign=middle;resizable=0;points=[];" vertex="1" connectable="0" parent="dwXXUgJBTjUQGGqZUux0-12">
          <mxGeometry x="0.3655" y="-14" relative="1" as="geometry">
            <mxPoint y="-4" as="offset" />
          </mxGeometry>
        </mxCell>
        <mxCell id="dwXXUgJBTjUQGGqZUux0-5" value="Post Ingestor" style="rounded=1;whiteSpace=wrap;html=1;" vertex="1" parent="1">
          <mxGeometry x="425" y="260" width="105" height="70" as="geometry" />
        </mxCell>
        <mxCell id="dwXXUgJBTjUQGGqZUux0-11" style="edgeStyle=orthogonalEdgeStyle;rounded=0;orthogonalLoop=1;jettySize=auto;html=1;entryX=1;entryY=0.5;entryDx=0;entryDy=0;entryPerimeter=0;curved=1;" edge="1" parent="1" source="dwXXUgJBTjUQGGqZUux0-7" target="dwXXUgJBTjUQGGqZUux0-4">
          <mxGeometry relative="1" as="geometry">
            <Array as="points">
              <mxPoint x="700" y="155" />
              <mxPoint x="700" y="430" />
            </Array>
          </mxGeometry>
        </mxCell>
        <mxCell id="dwXXUgJBTjUQGGqZUux0-14" value="Update post" style="edgeLabel;html=1;align=center;verticalAlign=middle;resizable=0;points=[];" vertex="1" connectable="0" parent="dwXXUgJBTjUQGGqZUux0-11">
          <mxGeometry x="-0.0274" y="-14" relative="1" as="geometry">
            <mxPoint x="34" as="offset" />
          </mxGeometry>
        </mxCell>
        <mxCell id="dwXXUgJBTjUQGGqZUux0-7" value="Likes/Repost&lt;br&gt;Ingestor" style="rounded=1;whiteSpace=wrap;html=1;" vertex="1" parent="1">
          <mxGeometry x="415" y="120" width="125" height="70" as="geometry" />
        </mxCell>
        <mxCell id="dwXXUgJBTjUQGGqZUux0-10" value="Firehose subscription" style="text;html=1;align=center;verticalAlign=middle;resizable=0;points=[];autosize=1;strokeColor=none;fillColor=none;" vertex="1" parent="1">
          <mxGeometry x="260" y="120" width="140" height="30" as="geometry" />
        </mxCell>
        <mxCell id="dwXXUgJBTjUQGGqZUux0-17" value="Feed generator" style="rounded=1;whiteSpace=wrap;html=1;" vertex="1" parent="1">
          <mxGeometry x="425" y="500" width="105" height="70" as="geometry" />
        </mxCell>
        <mxCell id="dwXXUgJBTjUQGGqZUux0-19" value="App view" style="ellipse;shape=cloud;whiteSpace=wrap;html=1;" vertex="1" parent="1">
          <mxGeometry x="200" y="400" width="120" height="80" as="geometry" />
        </mxCell>
      </root>
    </mxGraphModel>
  </diagram>
</mxfile>
